HIERARCHY
ROOT Hips
{
	OFFSET 0.000000 0.000000 0.000000 
	CHANNELS 6 Xposition Yposition Zposition Zrotation Yrotation Xrotation
	JOINT LeftUpLeg
	{
		OFFSET 1.363060 -1.794630 0.839290 
		CHANNELS 3 Zrotation Yrotation Xrotation
		JOINT LeftLeg
		{
			OFFSET 2.448110 -6.726130 0.000000 
			CHANNELS 3 Zrotation Yrotation Xrotation
			JOINT LeftFoot
			{
				OFFSET 2.562200 -7.039590 0.000000 
				CHANNELS 3 Zrotation Yrotation Xrotation
				JOINT LeftToeBase
				{
					OFFSET 0.157640 -0.433110 2.322550 
					CHANNELS 3 Zrotation Yrotation Xrotation
					End Site
					{
						OFFSET 0.000000 0.000000 0.000000 
					}
				}
			}
		}
	}
	JOINT RightUpLeg
	{
		OFFSET -1.305520 -1.794630 0.839290 
		CHANNELS 3 Zrotation Yrotation Xrotation
		JOINT RightLeg
		{
			OFFSET -2.542530 -6.985550 0.000000 
			CHANNELS 3 Zrotation Yrotation Xrotation
			JOINT RightFoot
			{
				OFFSET -2.568260 -7.056230 0.000000 
				CHANNELS 3 Zrotation Yrotation Xrotation
				JOINT RightToeBase
				{
					OFFSET -0.164730 -0.452590 2.363150 
					CHANNELS 3 Zrotation Yrotation Xrotation
					End Site
					{
						OFFSET 0.000000 0.000000 0.000000 
					}
				}
			}
		}
	}
	JOINT Spine
	{
		OFFSET 0.028270 2.035590 -0.193380 
		CHANNELS 3 Zrotation Yrotation Xrotation
		JOINT Spine1
		{
			OFFSET 0.056720 2.048850 -0.042750 
			CHANNELS 3 Zrotation Yrotation Xrotation
			JOINT Neck1
			{
				OFFSET -0.054170 1.746240 0.172020 
				CHANNELS 3 Zrotation Yrotation Xrotation
				JOINT Head
				{
					OFFSET 0.104070 1.761360 -0.123970 
					CHANNELS 3 Zrotation Yrotation Xrotation
					End Site
					{
						OFFSET 0.000000 0.000000 0.000000 
					}
				}
			}
			JOINT LeftArm
			{
				OFFSET 3.362410 1.200890 -0.311210 
				CHANNELS 3 Zrotation Yrotation Xrotation
				JOINT LeftForeArm
				{
					OFFSET 4.983000 -0.000000 -0.000000 
					CHANNELS 3 Zrotation Yrotation Xrotation
					JOINT LeftHand
					{
						OFFSET 3.483560 -0.000000 -0.000000 
						CHANNELS 3 Zrotation Yrotation Xrotation
						JOINT LeftHandIndex1
						{
							OFFSET 0.715260 -0.000000 -0.000000 
							CHANNELS 3 Zrotation Yrotation Xrotation
							End Site
							{
								OFFSET 0.000000 0.000000 0.000000 
							}
						}
					}
				}
			}
			JOINT RightArm
			{
				OFFSET -3.136600 1.374050 -0.404650 
				CHANNELS 3 Zrotation Yrotation Xrotation
				JOINT RightForeArm
				{
					OFFSET -5.241900 -0.000000 -0.000000 
					CHANNELS 3 Zrotation Yrotation Xrotation
					JOINT RightHand
					{
						OFFSET -3.444170 -0.000000 -0.000000 
						CHANNELS 3 Zrotation Yrotation Xrotation
						JOINT RightHandIndex1
						{
							OFFSET -0.622530 -0.000000 -0.000000 
							CHANNELS 3 Zrotation Yrotation Xrotation
							End Site
							{
								OFFSET 0.000000 0.000000 0.000000 
							}
						}
					}
				}
			}
		}
	}
}
MOTION
Frames: 6
Frame Time: 0.041667
10.631447 16.905862 23.673254 -171.861758 -12.518531 -125.446620 17.318970 -11.868769 -55.197814 -1.452074 12.830041 14.520646 -8.976536 35.613439 13.609525 3.365200 -11.264000 -33.175400 8.797661 12.835659 -66.921540 5.646230 -16.365075 18.237850 3.183855 -21.968747 14.842048 -2.185400 9.242100 -26.555500 0.417361 3.589340 -3.914155 -1.673117 2.011780 1.527688 -1.869968 7.949548 -17.396011 -0.755500 1.116000 3.132200 -76.453801 -54.373597 55.141041 39.650070 -32.845517 -19.289311 -0.464607 -3.757546 -74.602972 -7.125000 0.000000 0.000000 39.210940 47.985591 16.988464 -48.282633 33.620978 -23.305670 0.424912 3.565786 -35.671844 7.125000 0.000000 0.000000 
10.634151 16.936392 23.655793 -171.890555 -12.674917 -126.316836 17.029849 -12.179818 -54.220608 -1.528872 12.727468 14.174384 -8.924260 35.559323 13.997451 3.384500 -11.292900 -33.274200 8.999201 12.875158 -65.826825 5.645403 -16.310577 18.156820 3.316646 -22.246710 14.755013 -2.181900 9.235000 -26.533400 0.421187 3.548630 -3.917251 -1.641206 1.980132 1.459228 -1.850863 7.908550 -17.452247 -0.766500 1.098900 3.114100 -76.535920 -53.353335 55.632410 40.074050 -33.350680 -19.773779 -0.393691 -3.750112 -74.851151 -7.125000 0.000000 0.000000 40.067346 47.385010 17.256269 -49.042714 34.324424 -24.111496 0.360944 3.494151 -35.780195 7.125000 0.000000 0.000000 
10.636292 16.970188 23.636303 -171.915804 -12.837406 -127.249621 16.717026 -12.501903 -53.160210 -1.608821 12.609004 13.796649 -8.871924 35.510671 14.418483 3.405700 -11.324500 -33.382100 9.217252 12.922212 -64.630194 5.648062 -16.231911 18.035849 3.461177 -22.558996 14.674030 -2.176400 9.224300 -26.499400 0.428234 3.511841 -3.915714 -1.592905 1.950799 1.379033 -1.816839 7.862236 -17.498982 -0.766300 1.083400 3.099000 -76.605015 -52.345829 56.122732 40.521439 -33.856834 -20.282078 -0.334908 -3.745672 -75.031319 -7.125000 0.000000 0.000000 40.898777 46.739447 17.553016 -49.835571 35.032661 -24.958651 0.297064 3.422309 -35.869769 7.125000 0.000000 0.000000 
10.637531 17.006801 23.614674 -171.932828 -13.000931 -128.247087 16.378153 -12.828946 -52.017319 -1.690065 12.475672 13.395886 -8.821623 35.464698 14.864289 3.426900 -11.356000 -33.490200 9.456215 12.978170 -63.332829 5.654394 -16.127273 17.874852 3.616301 -22.899288 14.597729 -2.166700 9.205000 -26.438800 0.436693 3.480645 -3.910159 -1.534787 1.924245 1.284600 -1.756714 7.803907 -17.528134 -0.749100 1.067800 3.094900 -76.651251 -51.357286 56.618088 40.987700 -34.355483 -20.806627 -0.279110 -3.738375 -75.140766 -7.125000 0.000000 0.000000 41.712479 46.058924 17.872977 -50.665762 35.739297 -25.849106 0.234946 3.349218 -35.935924 7.125000 0.000000 0.000000 
10.638319 17.046906 23.589890 -171.943317 -13.162289 -129.334063 16.006110 -13.168968 -50.772544 -1.772607 12.331967 12.984094 -8.775778 35.416814 15.326638 3.448700 -11.388200 -33.600400 9.731695 13.038803 -61.909123 5.663135 -15.995791 17.682281 3.781229 -23.252944 14.522165 -2.153400 9.178500 -26.355300 0.447548 3.457807 -3.898975 -1.461500 1.902361 1.162018 -1.692479 7.745626 -17.547598 -0.729700 1.054000 3.099000 -76.672140 -50.403200 57.116335 41.462280 -34.835805 -21.335519 -0.225819 -3.729189 -75.202709 -7.125000 0.000000 0.000000 42.504398 45.341254 18.211882 -51.532954 36.441103 -26.782948 0.174680 3.276187 -35.981373 7.125000 0.000000 0.000000 
10.637981 17.086673 23.564430 -171.944786 -13.313696 -130.436003 15.630247 -13.498121 -49.517319 -1.850592 12.184628 12.585520 -8.737548 35.372900 15.775512 3.465800 -11.413400 -33.687100 10.014616 13.104780 -60.457650 5.672406 -15.844612 17.467899 3.949372 -23.609989 14.449557 -2.135900 9.143500 -26.245300 0.458978 3.441404 -3.887372 -1.379925 1.883574 1.031842 -1.608919 7.681912 -17.551880 -0.698800 1.041800 3.110100 -76.675490 -49.479741 57.609814 41.937751 -35.297674 -21.863506 -0.177323 -3.719347 -75.242087 -7.125000 0.000000 0.000000 43.274592 44.598416 18.570340 -52.431887 37.132651 -27.755428 0.116121 3.204492 -35.999591 7.125000 0.000000 0.000000 
